{"title":"The Hobbit:Battle of Five Armies(2014)MPEG-4[DaScubaD","uid":14424015,"size":1448880054,"categoryP":"video","categoryS":"movies","magnet":"?xt=urn:btih:10f609714e7e8bcb194c5f1a2d250dff159715ff&amp;dn=The+Hobbit%3ABattle+of+Five+Armies%282014%29MPEG-4%5BDaScubaD&amp;tr=udp%3A%2F%2Ftracker.leechers-paradise.org%3A6969&amp;tr=udp%3A%2F%2Fzer0day.ch%3A1337&amp;tr=udp%3A%2F%2Fopen.demonii.com%3A1337&amp;tr=udp%3A%2F%2Ftracker.coppersurfer.tk%3A6969&amp;tr=udp%3A%2F%2Fexodus.desync.com%3A6969","seeders":1,"leechers":0,"uploader":"dascuba","files":1,"time":1461549738,"description":"The Hobbit: The Battle of the Five Armies (2014)\r\nPG-13 | 2h 24min | Adventure, Fantasy | 17 December 2014 (USA)\r\nBilbo and Company are forced to engage in a war against an array of combatants and keep the Lonely Mountain from falling into the hands of a rising darkness.\r\nDirector: Peter Jackson\r\nWriters: Fran Walsh (screenplay), Philippa Boyens (screenplay) |\r\nStars: Ian McKellen, Martin Freeman, Richard Armitage \r\n\r\nGeneral\r\nComplete name                            : Hobbit Battle Five ArmiesHOBBIT_BATTLE_OF_FIVE_ARMIES_Title1.mp4\r\nFormat                                   : MPEG-4\r\nFormat profile                           : Base Media\r\nCodec ID                                 : isom\r\nFile size                                : 1.35 GiB\r\nDuration                                 : 2h 24mn\r\nOverall bit rate                         : 1 338 Kbps\r\nMovie name                               : HOBBIT_BATTLE_OF_FIVE_ARMIES\r\nGenre                                    : Action\r\nWriting application                      : Lavf54.6.100\r\n\r\nVideo\r\nID                                       : 1\r\nFormat                                   : AVC\r\nFormat/Info                              : Advanced Video Codec\r\nFormat profile                           :   \r\nFormat settings, CABAC                   : No\r\nFormat settings, ReFrames                : 6 frames\r\nCodec ID                                 : avc1\r\nCodec ID/Info                            : Advanced Video Coding\r\nDuration                                 : 2h 24mn\r\nBit rate                                 : 1 204 Kbps\r\nWidth                                    : 720 pixels\r\nHeight                                   : 404 pixels\r\nDisplay aspect ratio                     : 16:9\r\nFrame rate mode                          : Constant\r\nFrame rate                               : 29.970 fps\r\nColor space                              : YUV\r\nChroma subsampling                       : 4:2:0\r\nBit depth                                : 8 bits\r\nScan type                                : Progressive\r\nBits/(Pixel*Frame)                       : 0.138\r\nStream size                              : 1.21 GiB (90%)\r\n\r\nAudio\r\nID                                       : 2\r\nFormat                                   : AAC\r\nFormat/Info                              : Advanced Audio Codec\r\nFormat profile                           : LC\r\nCodec ID                                 : 40\r\nDuration                                 : 2h 24mn\r\nBit rate mode                            : Constant\r\nBit rate                                 : 128 Kbps\r\nChannel(s)                               : 2 channels\r\nChannel positions                        : Front: L R\r\nSampling rate                            : 44.1 KHz\r\nCompression mode                         : Lossy\r\nStream size                              : 132 MiB (10%)","torrent":{"xt":"urn:btih:10f609714e7e8bcb194c5f1a2d250dff159715ff","amp;dn":"The+Hobbit%3ABattle+of+Five+Armies%282014%29MPEG-4%5BDaScubaD","amp;tr":["udp%3A%2F%2Ftracker.leechers-paradise.org%3A6969","udp%3A%2F%2Fzer0day.ch%3A1337","udp%3A%2F%2Fopen.demonii.com%3A1337","udp%3A%2F%2Ftracker.coppersurfer.tk%3A6969","udp%3A%2F%2Fexodus.desync.com%3A6969"],"infoHash":"10f609714e7e8bcb194c5f1a2d250dff159715ff","infoHashBuffer":{"type":"Buffer","data":[16,246,9,113,78,126,139,203,25,76,95,26,45,37,13,255,21,151,21,255]},"announce":[],"urlList":[]}}